<svg width="1200" height="347" viewBox="0 0 1200 347" fill="none" xmlns="http://www.w3.org/2000/svg">
<path d="M350.086 317.163C350.086 325.447 343.37 332.163 335.086 332.163C326.802 332.163 320.086 325.447 320.086 317.163C320.086 308.879 326.802 302.163 335.086 302.163C343.37 302.163 350.086 308.879 350.086 317.163ZM322.408 317.163C322.408 324.165 328.084 329.841 335.086 329.841C342.088 329.841 347.764 324.165 347.764 317.163C347.764 310.161 342.088 304.485 335.086 304.485C328.084 304.485 322.408 310.161 322.408 317.163Z" fill="#1A1A1A"/>
<path d="M1044.09 22.1631C1044.09 30.4474 1037.37 37.1631 1029.09 37.1631C1020.8 37.1631 1014.09 30.4474 1014.09 22.1631C1014.09 13.8788 1020.8 7.16309 1029.09 7.16309C1037.37 7.16309 1044.09 13.8788 1044.09 22.1631ZM1016.41 22.1631C1016.41 29.1648 1022.08 34.8408 1029.09 34.8408C1036.09 34.8408 1041.76 29.1648 1041.76 22.1631C1041.76 15.1614 1036.09 9.48539 1029.09 9.48539C1022.08 9.48539 1016.41 15.1614 1016.41 22.1631Z" fill="#1A1A1A"/>
<path d="M1.08602 254.165C1.08602 254.165 129.265 337.243 199.586 341.665C253.361 345.047 256.893 347.134 291.586 337.665C343.84 323.404 356.64 281.862 405.586 258.665C453.891 235.772 492.41 223.339 537.086 220.665C599.501 216.93 635.803 224.55 719.586 225.165C810.705 225.835 840.683 165.064 904.586 106.665C948.041 66.9531 975.112 44.218 1030.09 23.1652C1085.89 1.7942 1140.04 -0.837714 1199.59 4.16309" stroke="#1A1A1A" stroke-width="4"/>
<path d="M734.086 223.163C734.086 231.447 727.37 238.163 719.086 238.163C710.802 238.163 704.086 231.447 704.086 223.163C704.086 214.879 710.802 208.163 719.086 208.163C727.37 208.163 734.086 214.879 734.086 223.163ZM706.408 223.163C706.408 230.165 712.084 235.841 719.086 235.841C726.088 235.841 731.764 230.165 731.764 223.163C731.764 216.161 726.088 210.485 719.086 210.485C712.084 210.485 706.408 216.161 706.408 223.163Z" fill="#1A1A1A"/>
<circle cx="335.086" cy="317.163" r="10" fill="#1A1A1A"/>
<circle cx="719.086" cy="223.163" r="10" fill="#1A1A1A"/>
<circle cx="1029.09" cy="22.1631" r="10" fill="#1A1A1A"/>
</svg>
